# xmcd
#
# Track frame offsets:
#	150
#	16048
#	35434
#	46810
#	70109
#	95074
#	109972
#	120688
#	135108
#	157308
#	172194
#	187197
#	199275
#	217728
#	233918
#	238676
#	251116
#	267232
#	283828
#	300735
#
# Disc length: 4271 seconds
#
# Revision: 0
# Processed by: cddbd v1.4PL0 Copyright (c) Steve Scherf et al.
# Submitted via: EasyCDDAExtractor 4.6.9.1
#
DISCID=2810ad14
DTITLE=Tom Russell - The Early years (with Patricia Hardin)
DYEAR=1975
DGENRE=Country
TTITLE0=Mojave
TTITLE1=Alkali
TTITLE2=Zane Grey
TTITLE3=Beneath Cnayon Walls
TTITLE4=The 27th Parade
TTITLE5=Old Women Suite - Mrs. Zeelsdorf's Garden
TTITLE6=Old Women Suite - Old Lady Blues
TTITLE7=Old Women Suite - Coffins on the Brazos
TTITLE8=Denver Wind
TTITLE9=Ring of Bone
TTITLE10=House of Wax
TTITLE11=Stampede
TTITLE12=Tarantula
TTITLE13=Wildhorse Annie
TTITLE14=Wind on the Buffalo Grass
TTITLE15=The end of the Trail
TTITLE16=Who is Franz Rummel?
TTITLE17=Joshua Tree
TTITLE18=The Phantom of Balance
TTITLE19=The Hindenbourg
EXTD=
EXTT0=
EXTT1=
EXTT2=
EXTT3=
EXTT4=
EXTT5=
EXTT6=
EXTT7=
EXTT8=
EXTT9=
EXTT10=
EXTT11=
EXTT12=
EXTT13=
EXTT14=
EXTT15=
EXTT16=
EXTT17=
EXTT18=
EXTT19=
PLAYORDER=
